<svg width="232" height="201" viewBox="0 0 232 201" fill="none" xmlns="http://www.w3.org/2000/svg">
<g clip-path="url(#clip0_13_51)">
<path d="M52.4781 145.891C45.2813 142.193 38.1773 139.31 31.895 135.175C12.8362 122.624 2.29944 104.592 0.344516 81.928C-1.79596 57.0706 5.99061 35.626 24.4266 18.5419C36.2224 7.61418 50.5033 1.34515 66.4541 0.649327C85.3341 -0.179034 104.3 -0.232049 123.18 0.589685C139.913 1.31864 154.273 8.74738 166.639 20.033C167.878 21.1662 169.668 22.0276 171.324 22.3126C202.577 27.6406 226.705 52.2993 231.105 83.7041C234.445 107.594 228.587 128.78 211.974 146.58C203.571 155.586 193.166 161.57 181.556 165.467C179.919 166.017 179.416 166.679 179.436 168.382C179.528 177.223 179.442 186.07 179.502 194.91C179.515 197.368 178.773 199.303 176.507 200.417C174.253 201.517 172.265 200.967 170.304 199.482C157.574 189.88 144.83 180.298 132.014 170.814C130.801 169.92 129.052 169.376 127.534 169.337C118.707 169.105 109.807 169.913 101.139 167.647C96.2088 166.355 91.3049 164.837 86.5733 162.955C84.3268 162.06 82.9352 162.226 81.0929 163.664C74.7709 168.588 68.2832 173.3 61.9081 178.15C59.9201 179.661 57.9121 180.483 55.5132 179.303C53.0149 178.078 52.4449 175.924 52.4648 173.319C52.5377 163.982 52.4913 154.645 52.4913 145.884L52.4781 145.891ZM63.0214 163.969C64.1612 163.154 64.8836 162.67 65.5728 162.146C75.6257 154.612 85.6389 147.037 95.7515 139.589C97.0703 138.614 98.833 137.839 100.437 137.733C104.632 137.455 108.859 137.594 113.068 137.574C126.209 137.521 138.66 134.771 149.959 127.852C179.906 109.516 188.488 67.17 168.157 37.6538C155.334 19.0389 136.778 11.2391 114.863 10.6162C101.398 10.2318 87.9119 10.3908 74.4461 10.583C56.6265 10.8348 40.8413 16.4147 28.2768 29.4961C17.1768 41.0534 11.3915 55.0693 10.6493 70.9871C9.64201 92.4184 17.084 110.324 34.0421 123.856C41.1726 129.549 49.3767 133.18 58.1573 135.566C61.8816 136.58 62.9883 138.124 63.0148 141.961C63.0347 144.771 63.0148 147.581 63.0148 150.39C63.0148 154.738 63.0148 159.085 63.0148 163.969H63.0214ZM179.402 35.4869C181.205 39.0852 183.027 42.2131 184.379 45.5266C194.2 69.6352 191.45 92.7166 177.626 114.353C165.771 132.915 148.786 144.413 126.719 147.335C119.224 148.329 111.55 147.932 103.956 148.197C103.074 148.23 102.007 148.177 101.345 148.634C98.7071 150.43 96.1955 152.412 93.6309 154.327C93.6574 154.585 93.6839 154.844 93.7104 155.102C98.6143 156.149 103.472 157.68 108.429 158.124C115.241 158.74 122.126 158.628 128.979 158.647C132.173 158.654 134.83 159.509 137.415 161.497C147.043 168.899 156.811 176.123 166.54 183.399C167.209 183.903 167.925 184.333 168.925 184.996C168.925 177.521 168.925 170.582 168.925 163.638C168.925 159.091 169.999 158.031 174.22 156.567C179.502 154.731 185.002 153.088 189.773 150.284C212.775 136.779 223.113 116.116 221.138 89.8869C219.223 64.3999 205.724 46.5604 182.186 36.4411C181.391 36.0965 180.542 35.8712 179.396 35.4736L179.402 35.4869Z" fill="#666666"/>
<path d="M137.242 48.0183H52.4318C49.632 48.0183 47.3622 50.2866 47.3622 53.0846C47.3622 55.8826 49.632 58.1508 52.4318 58.1508H137.242C140.042 58.1508 142.312 55.8826 142.312 53.0846C142.312 50.2866 140.042 48.0183 137.242 48.0183Z" fill="#666666"/>
<path d="M137.242 69.0254H52.4318C49.632 69.0254 47.3622 71.2936 47.3622 74.0916C47.3622 76.8897 49.632 79.1579 52.4318 79.1579H137.242C140.042 79.1579 142.312 76.8897 142.312 74.0916C142.312 71.2936 140.042 69.0254 137.242 69.0254Z" fill="#666666"/>
</g>
<defs>
<clipPath id="clip0_13_51">
<rect width="232" height="201" fill="white"/>
</clipPath>
</defs>
</svg>
