<svg width="281" height="208" viewBox="0 0 281 208" fill="none" xmlns="http://www.w3.org/2000/svg">
<g clip-path="url(#clip0_13_140)">
<path d="M1.45789e-05 125.453C1.1819 120.88 1.88634 116.118 3.63178 111.772C19.5364 72.1003 73.4024 64.465 99.5448 98.2324C103.497 103.338 106.276 109.352 109.603 114.967C121.445 101.193 137.06 93.8 155.563 92.32C174.027 90.8399 190.597 95.8283 205.688 107.606C205.437 105.766 205.328 104.442 205.077 103.142C201.766 85.6636 194.362 69.8058 185.651 54.4804C185.212 53.713 183.811 53.1022 182.841 53.0865C175.702 52.9691 168.564 53.1492 161.434 52.9377C159.672 52.8829 157.598 52.1546 156.275 51.0191C151.759 47.1506 147.415 43.0706 143.243 38.834C142.093 37.6594 141.216 35.6781 141.169 34.0415C140.84 22.2714 145.451 12.514 153.99 4.59678C155.25 3.42996 157.035 2.49023 158.718 2.16916C167.82 0.430671 177.025 -0.438574 186.285 0.234895C191.803 0.634278 197.321 1.64448 201.195 6.12383C226.163 35.0125 248.635 65.6397 265.322 100.159C272.664 115.343 278.534 131.06 280.883 147.936C281.399 151.664 280.116 154.021 277.509 156.268C257.057 173.896 234.147 187.303 208.678 196.269C191.756 202.221 174.286 205.283 156.377 206.465C133.248 207.992 110.143 208.869 87.0215 206.731C70.4829 205.204 54.2338 202.291 39.0102 195.22C18.9963 185.932 6.45736 170.622 2.14463 148.844C1.26017 144.373 0.696625 139.847 -0.0078125 135.336V125.445L1.45789e-05 125.453ZM172.697 194.664C189.439 192.902 205.312 187.514 220.645 180.615C238.092 172.76 254.114 162.619 268.876 150.442C270.41 149.173 270.848 148.022 270.48 146.025C266.778 125.782 258.427 107.348 248.518 89.5478C233.333 62.2567 214.759 37.3383 194.613 13.5476C192.092 10.5719 188.68 10.1411 185.416 10.2273C177.573 10.4309 169.746 11.167 161.919 11.7465C161.261 11.7935 160.51 12.1772 160.025 12.6471C154.906 17.5963 151.908 23.6418 151.164 30.7289C151.07 31.6373 151.564 32.8903 152.221 33.5481C155.133 36.4612 158.138 39.2804 161.253 41.9665C162.036 42.6399 163.351 42.9767 164.431 42.9923C171.937 43.0785 179.436 43.0785 186.942 43.0158C189.494 42.9923 191.309 43.979 192.57 46.1796C200.639 60.3537 207.966 74.8646 212.427 90.6363C215.151 100.268 216.904 110.057 216.012 120.167C215.8 122.563 215.033 124.521 212.654 125.32C210.196 126.142 208.2 125.234 206.627 123.221C197.156 111.122 184.5 104.63 169.503 102.579C147.321 99.5402 121.633 109.454 111.387 130.747C110.252 133.112 108.452 134.608 105.736 134.146C102.895 133.668 101.776 131.616 101.455 128.86C99.4039 111.169 90.4576 98.2716 74.2555 90.7929C47.9644 78.6548 15.3489 94.8807 10.8718 123.417C7.29485 146.197 14.8636 171.421 39.2998 184.045C51.8388 190.521 65.2231 194.061 79.0848 195.596C92.43 197.068 105.869 197.694 119.41 198.705C137.146 197.397 154.976 196.52 172.697 194.664Z" fill="#666666"/>
<path d="M159.43 176.762C176.43 176.323 193.705 167.827 208.811 154.256C211.316 152.008 211.511 149.142 209.601 146.949C207.629 144.694 204.663 144.616 202.072 146.988C195.333 153.151 187.944 158.281 179.491 161.82C159.485 170.192 140.582 167.968 122.697 155.924C121.633 155.211 120.623 154.404 119.527 153.762C116.976 152.266 114.213 152.744 112.663 154.874C111.043 157.106 111.419 160.121 113.9 161.914C117.007 164.162 120.216 166.3 123.558 168.171C133.546 173.77 144.253 176.848 159.446 176.77L159.43 176.762Z" fill="#666666"/>
<path d="M56.4254 109.039C73.5041 108.35 82.4426 119.18 85.096 135.281C85.3308 136.722 85.4013 138.194 85.6204 139.635C86.0666 142.564 88.1251 144.318 90.8411 144.161C93.604 143.997 95.9209 141.757 95.4199 138.75C94.4494 132.932 93.698 126.87 91.4594 121.498C84.3759 104.536 69.8723 96.6974 51.5413 99.1015C48.4809 99.5009 46.5555 101.592 46.6807 104.364C46.8137 107.168 48.8801 108.976 52.0422 109.031C53.5059 109.063 54.9696 109.031 56.4254 109.031V109.039Z" fill="#666666"/>
<path d="M252.392 144.929C245.872 147.223 240.127 149.244 234.39 151.256C233.27 151.648 232.089 151.891 231.024 152.384C228.652 153.465 227.604 155.634 228.175 157.983C228.778 160.458 230.828 162.024 233.474 161.734C235.094 161.562 236.738 161.17 238.248 160.568C244.745 157.952 251.398 155.603 257.597 152.4C262.403 149.925 262.802 147.568 261.417 142.29C260.336 138.163 258.693 134.334 255.679 131.217C253.308 128.758 250.302 128.468 248.15 130.442C246.036 132.376 246.146 135.007 248.15 137.811C249.559 139.784 250.654 141.977 252.4 144.929H252.392Z" fill="#666666"/>
</g>
<defs>
<clipPath id="clip0_13_140">
<rect width="281" height="208" fill="white"/>
</clipPath>
</defs>
</svg>
