<svg width="260" height="254" viewBox="0 0 260 254" fill="none" xmlns="http://www.w3.org/2000/svg">
<path d="M54.4473 159.04L42.4728 187.048C41.904 188.393 40.5989 189.281 39.1364 189.316L9.01239 192.021L31.9761 212.053C33.0425 212.987 33.4488 214.397 33.1543 215.691L26.3698 245.384L52.5277 229.756C53.7465 229.026 55.2192 229.076 56.3567 229.756L82.5248 245.384L79.5438 232.364C82.022 232.643 84.5764 232.461 87.0596 231.781L90.4519 246.653C90.5484 247.297 90.5484 247.962 90.4417 248.627C90.3097 249.428 90.0304 250.195 89.619 250.895C88.7507 252.346 87.344 253.391 85.7037 253.802C84.1295 254.198 82.4029 253.99 80.8845 253.087L54.4422 237.291L28.2284 252.96C27.6596 253.335 27.0198 253.614 26.3342 253.787L25.8569 253.904C25.1205 254.036 24.3385 254.036 23.5463 253.883L23.2924 253.838C21.5962 253.442 20.2048 252.392 19.3415 251.016C18.463 249.621 18.1583 247.942 18.4934 246.328L25.3846 216.194L2.18726 195.953C1.5728 195.415 1.06497 194.766 0.694263 194.035C0.354022 193.371 0.13058 192.645 0.0391721 191.904L0.013781 191.574C-0.0979399 189.895 0.475899 188.302 1.50678 187.074C2.5275 185.861 3.99511 185.019 5.67092 184.831L36.4805 182.086L48.5565 153.819C48.8714 153.073 49.3386 152.373 49.9276 151.779C50.405 151.297 50.9636 150.886 51.6035 150.566C51.8269 150.444 52.0656 150.343 52.3144 150.262C53.8176 149.724 55.4223 149.8 56.8188 150.358C58.2153 150.921 59.4188 151.977 60.14 153.408L69.6972 175.738L66.9194 187.881C66.7162 187.627 66.5537 187.348 66.4268 187.048L54.4473 159.04ZM124.115 5.70319C124.115 2.5573 126.67 0 129.823 0C132.977 0 135.531 2.5573 135.531 5.70319V31.4589C135.531 34.6048 132.972 37.1621 129.823 37.1621C126.675 37.1621 124.115 34.6048 124.115 31.4589V5.70319ZM20.7888 77.0134C17.8942 75.7956 16.5332 72.467 17.752 69.5749C18.9708 66.6827 22.3072 65.3228 25.2018 66.5406L48.9323 76.5872C51.8269 77.8049 53.1879 81.1385 51.9691 84.0257C50.7503 86.9178 47.4139 88.2777 44.5193 87.0599L20.7888 77.0134ZM44.9205 40.0543C42.7064 37.8268 42.7166 34.2242 44.9459 32.0119C47.1752 29.7997 50.7808 29.8098 52.9949 32.0373L71.1241 50.3444C73.3382 52.5718 73.3281 56.1744 71.0988 58.3867C68.8694 60.5989 65.2639 60.5888 63.0498 58.3613L44.9205 40.0543ZM81.306 15.0191C80.1126 12.1167 81.499 8.79326 84.4037 7.60087C87.3135 6.40848 90.6347 7.79368 91.8331 10.696L101.634 34.5185C102.827 37.4208 101.436 40.7443 98.5313 41.9367C95.6266 43.1291 92.3003 41.7439 91.107 38.8416L81.306 15.0191ZM234.8 66.5406C237.695 65.3228 241.031 66.6827 242.25 69.5749C243.469 72.467 242.108 75.7956 239.213 77.0134L215.483 87.0599C212.588 88.2777 209.252 86.9178 208.033 84.0257C206.814 81.1385 208.175 77.8049 211.07 76.5872L234.8 66.5406ZM207.007 32.0373C209.221 29.8098 212.827 29.7997 215.056 32.0119C217.286 34.2242 217.296 37.8268 215.082 40.0543L196.952 58.3613C194.738 60.5888 191.133 60.5989 188.903 58.3867C186.674 56.1744 186.664 52.5718 188.878 50.3444L207.007 32.0373ZM168.169 10.696C169.367 7.79368 172.689 6.40848 175.598 7.60087C178.503 8.79326 179.89 12.1167 178.696 15.0191L168.895 38.8416C167.702 41.7439 164.376 43.1291 161.471 41.9367C158.566 40.7443 157.175 37.4208 158.368 34.5185L168.169 10.696ZM211.476 153.895L223.522 182.086L254.331 184.831C256.007 185.019 257.475 185.861 258.495 187.074C259.526 188.302 260.1 189.895 259.988 191.574L259.963 191.904C259.872 192.645 259.648 193.371 259.308 194.035C258.942 194.761 258.429 195.415 257.815 195.953L234.618 216.194L241.509 246.328C241.854 247.997 241.509 249.667 240.661 251.016C239.797 252.392 238.406 253.442 236.71 253.838L236.456 253.883C235.664 254.036 234.882 254.036 234.145 253.904L233.668 253.787C232.982 253.614 232.343 253.335 231.774 252.96L205.555 237.291L179.118 253.087C177.67 253.954 175.939 254.213 174.298 253.802C172.724 253.406 171.287 252.402 170.383 250.895C169.957 250.179 169.682 249.408 169.555 248.637V248.596C169.444 247.962 169.449 247.307 169.55 246.663L172.948 231.766C173.501 231.918 174.07 232.045 174.639 232.146C176.543 232.491 178.508 232.572 180.458 232.354L177.477 245.384L203.64 229.756C204.783 229.076 206.251 229.026 207.469 229.756L233.632 245.384L226.843 215.691C226.553 214.397 226.96 212.987 228.026 212.053L250.99 192.021L220.866 189.316C219.403 189.281 218.098 188.393 217.529 187.048L205.555 159.04L193.586 187.048C193.453 187.358 193.276 187.647 193.068 187.906L190.295 175.774L199.862 153.408C200.583 151.977 201.787 150.921 203.183 150.358C204.58 149.8 206.185 149.724 207.688 150.262C207.937 150.343 208.175 150.444 208.399 150.566C209.039 150.886 209.597 151.297 210.075 151.779C210.664 152.373 211.131 153.073 211.446 153.819L211.476 153.895Z" fill="#666666"/>
<path d="M210.384 115.703L209.765 114.855C207.855 112.587 205.128 111.009 201.995 110.624C201.619 110.573 201.233 110.542 200.842 110.542L158.221 106.722L141.209 66.9161L141.158 66.7893C138.634 60.7512 131.687 57.7372 125.502 60.2286C122.526 61.421 120.144 63.7499 118.89 66.6979L101.781 106.722L58.8399 110.558C57.2199 110.649 55.6355 111.05 54.2085 111.76C52.7612 112.471 51.4714 113.455 50.4151 114.668C48.2162 117.179 47.2463 120.33 47.4443 123.375C47.6576 126.576 49.1354 129.565 51.5526 131.676L84.3579 160.293L74.6585 202.727C74.3234 204.188 74.2675 205.736 74.5113 207.273C74.6992 208.491 75.0699 209.673 75.6183 210.775L76.0754 211.642C77.7817 214.473 80.4883 216.371 83.4947 217.127C86.5162 217.883 89.7155 217.437 92.4171 215.884L130.001 193.432L166.96 215.524C168.321 216.412 169.865 217.031 171.485 217.32V217.29C173.059 217.569 174.684 217.548 176.269 217.173C179.387 216.468 182.093 214.545 183.795 211.84C185.354 209.364 186.014 206.335 185.46 203.28L175.644 160.293L207.921 132.132C208.444 131.752 208.922 131.305 209.338 130.813C209.887 130.219 210.379 129.58 210.806 128.89L211.278 128.078C211.872 126.906 212.289 125.617 212.476 124.252L212.578 123.222C212.72 120.467 211.893 117.844 210.384 115.703ZM204.184 122.938C204.097 123.933 203.63 124.856 202.879 125.511L166.381 157.355L177.178 204.554C177.655 206.639 176.35 208.714 174.263 209.197C173.196 209.435 172.13 209.217 171.277 208.659L129.823 183.897L88.2377 208.74C86.3994 209.836 84.0228 209.237 82.9259 207.4C82.413 206.548 82.2505 205.523 82.4739 204.554H82.4688L93.2652 157.355L56.768 125.516C55.1582 124.11 54.9957 121.665 56.4023 120.056C57.0879 119.27 58.068 118.798 59.109 118.742L107.225 114.429L126.258 69.9047C127.096 67.936 129.371 67.0227 131.342 67.8599C132.312 68.2709 133.023 69.032 133.398 69.9301L152.416 114.429L200.665 118.752C202.792 118.94 204.367 120.812 204.184 122.938Z" fill="#666666"/>
</svg>
