<svg width="111" height="222" viewBox="0 0 111 222" fill="none" xmlns="http://www.w3.org/2000/svg">
<path d="M22.0717 222C19.393 220.897 18.453 218.893 18.4367 216.024C18.4041 210.934 18.8986 206.061 22.088 201.84C25.9839 196.69 31.2489 194.294 37.6333 194.245C41.953 194.213 46.2726 194.24 50.7009 194.24V157.423C45.9792 156.228 41.1434 155.516 36.6987 153.794C16.8121 146.102 4.45087 131.765 0.908219 110.654C-0.336054 103.244 0.136661 95.5352 0.000823255 87.9622C-0.0480783 85.1319 2.10359 83.187 4.64104 83.2359C7.17849 83.2848 9.06935 85.2296 9.13999 88.098C9.28126 93.8022 9.17802 99.5173 9.43883 105.216C10.2865 123.649 24.582 141.278 42.4311 146.075C65.4746 152.268 87.6433 142.016 97.7225 120.465C100.651 114.207 101.722 107.536 101.776 100.674C101.809 96.4805 101.705 92.2866 101.819 88.098C101.923 84.3604 105.416 81.9973 108.345 83.8226C109.562 84.5832 110.844 86.3922 110.861 87.7449C110.98 97.328 111.54 106.927 109.013 116.396C103.439 137.285 84.5843 153.93 63.1545 156.565C62.2308 156.679 61.3125 156.869 60.2693 157.043V194.24C64.6813 194.24 69.001 194.213 73.3206 194.245C79.6126 194.3 84.8397 196.614 88.73 201.672C92.6367 206.751 93.0008 212.624 92.1314 218.589C91.9467 219.854 90.0124 220.865 88.8822 221.995H22.0717V222Z" fill="#666666"/>
<path d="M27.7878 83.1922C29.2331 83.1922 30.6838 83.2574 32.1237 83.1759C34.9981 83.0183 36.8835 81.1604 36.8889 78.5799C36.8889 75.9614 35.0524 74.1143 32.1509 74.0057C29.695 73.9133 27.2336 74.0057 24.7776 73.9622C23.8431 73.9459 22.8976 73.8807 21.9902 73.6797C19.8603 73.2017 18.5345 71.4524 18.5454 69.2902C18.5563 67.1172 19.8494 65.2049 22.0446 64.993C25.4079 64.6616 28.8202 64.7866 32.2052 64.6236C35.4273 64.4661 37.3508 62.0975 36.7965 59.1313C36.3836 56.9311 34.5416 55.5077 31.8521 55.448C28.9614 55.3882 26.0654 55.5023 23.1802 55.3937C20.7677 55.3067 19.0398 53.8237 18.6378 51.7701C18.2248 49.6514 19.1539 47.5816 21.11 46.745C22.0065 46.3647 23.0661 46.2615 24.055 46.2343C26.5109 46.1637 28.9723 46.2506 31.4282 46.1963C34.8459 46.1257 36.8454 44.409 36.8835 41.6166C36.9215 38.7319 34.8785 36.9881 31.3413 36.9012C30.4719 36.8794 29.608 36.9012 28.7387 36.9012C27.076 36.9012 25.4133 36.9392 23.7507 36.8849C20.3819 36.7708 18.5237 34.5163 18.9692 31.1372C21.0122 15.4588 34.5362 2.29564 50.6466 0.296448C70.0822 -2.11562 87.7248 10.4228 91.7076 29.4857C91.8543 30.1919 91.9847 30.9036 92.0608 31.6207C92.3433 34.4782 90.4579 36.7436 87.5836 36.8414C84.769 36.9392 81.9436 36.8305 79.129 36.9066C77.0589 36.9609 75.0213 37.6509 74.5268 39.7913C74.1954 41.2255 74.3856 43.2953 75.2441 44.3492C76.1243 45.4303 78.0586 45.9627 79.5963 46.1311C82.1664 46.4136 84.7962 46.1637 87.3934 46.2289C90.4905 46.3104 92.3868 48.0597 92.414 50.7434C92.4466 53.4923 90.4524 55.3556 87.2901 55.4208C84.6169 55.4752 81.9381 55.3937 79.2649 55.4426C76.0863 55.5023 74.0704 57.3168 74.065 60.0494C74.065 62.8146 76.0048 64.5747 79.2377 64.6399C81.911 64.6942 84.5897 64.5856 87.263 64.6779C90.5014 64.792 92.4248 66.6011 92.4085 69.3391C92.3922 72.0717 90.4633 73.7938 87.2087 73.9622C86.7033 73.9894 86.198 73.9677 85.6927 73.9731C83.5247 73.9731 81.3568 73.9351 79.1888 73.9894C75.9776 74.0709 74.0378 75.8636 74.0704 78.6342C74.103 81.3505 76.1243 83.1324 79.3246 83.1867C81.9273 83.2302 84.5299 83.165 87.1326 83.203C90.3492 83.2519 92.3651 85.0012 92.4194 87.7175C92.4737 90.5696 90.5014 92.3461 87.1271 92.4058C84.3832 92.4547 81.6339 92.3624 78.8845 92.4547C76.7817 92.5253 75.0702 93.438 74.3367 95.5187C73.7444 97.1974 73.8911 99.039 75.3201 100.098C76.5046 100.978 78.1401 101.511 79.6289 101.658C82.1338 101.907 84.6821 101.679 87.2141 101.744C90.5829 101.837 92.4411 104.113 92.001 107.487C89.9526 123.171 76.434 136.334 60.3182 138.333C40.888 140.745 23.2236 128.19 19.2572 109.138C19.1105 108.432 18.9801 107.72 18.9094 107.003C18.6269 104.151 20.5015 101.886 23.3866 101.772C26.2718 101.658 29.1679 101.782 32.0585 101.69C34.1559 101.625 36.1282 100.767 36.5412 98.637C36.8183 97.1919 36.4923 95.1764 35.6012 94.0954C34.759 93.074 32.8627 92.6286 31.3793 92.4819C28.7984 92.232 26.1795 92.4602 23.5768 92.3895C20.4797 92.308 18.5889 90.5587 18.5563 87.8696C18.5237 85.1207 20.5178 83.2845 23.6801 83.1922C25.0547 83.1541 26.4294 83.1867 27.7987 83.1867V83.1759L27.7878 83.1922Z" fill="#666666"/>
</svg>
