<svg width="206" height="206" viewBox="0 0 206 206" fill="none" xmlns="http://www.w3.org/2000/svg">
<g clip-path="url(#clip0_13_98)">
<path d="M206 17.7398C205.611 21.7342 205.273 25.7386 204.819 29.728C203.487 41.4737 200.443 52.7902 195.825 63.6472C185.464 87.9871 169.284 107.848 148.551 124.042C142.813 128.527 136.549 132.334 130.518 136.455C129.721 135.702 129.226 135.263 128.762 134.793C109.533 115.554 90.3146 96.304 71.0455 77.1048C69.809 75.8727 69.7333 75.0647 70.6417 73.5902C86.0449 48.4727 106.515 28.6675 132.542 14.816C151.685 4.62558 172.261 0 193.923 0.0706967C197.95 0.085846 201.978 0.0252488 206.005 0V17.7398H206ZM142.692 39.1054C129.368 39.1306 118.517 50.0583 118.577 63.3947C118.638 76.6352 129.494 87.4568 142.727 87.472C156.056 87.4871 166.927 76.6049 166.917 63.2584C166.902 49.8866 156.066 39.0801 142.692 39.1054ZM164.777 33.187C167.426 35.8382 170.233 38.6408 172.862 41.2667C175.416 38.7266 178.156 35.9947 180.791 33.3739C178.111 30.6975 175.335 27.9252 172.67 25.269C170.041 27.91 167.27 30.6925 164.777 33.1921V33.187ZM113.026 85.3208C110.29 88.0578 107.525 90.825 104.92 93.4307C107.444 95.9606 110.179 98.7027 112.794 101.329C115.473 98.6421 118.239 95.8647 120.909 93.1883C118.295 90.5776 115.509 87.7952 113.031 85.3208H113.026Z" fill="#666666"/>
<path d="M0 205.682C5.70302 195.653 11.2647 185.538 17.1545 175.626C23.4934 164.956 30.1099 154.447 36.6709 143.908C39.3054 139.676 42.9089 136.631 47.8448 135.243C55.1224 133.198 63.2782 136.162 67.6489 142.595C71.9286 148.897 71.8378 158.022 66.8212 163.617C63.9999 166.763 60.4974 169.425 56.9595 171.793C38.942 183.852 20.3694 195.017 1.3879 205.495C1.04976 205.682 0.696474 205.833 0.353284 206.005C0.237205 205.899 0.121126 205.793 0 205.682Z" fill="#666666"/>
<path d="M63.5862 87.3206C81.8459 105.606 100.085 123.871 118.466 142.277C115.504 143.464 112.42 144.873 109.215 145.938C104.451 147.524 99.6211 148.928 94.7711 150.246C94.0241 150.448 92.7826 150.044 92.2072 149.478C80.2359 137.606 68.3252 125.674 56.4397 113.716C55.9704 113.241 55.5363 112.307 55.6675 111.721C57.55 103.47 59.907 95.3649 63.3691 87.6135C63.4448 87.4468 63.5912 87.3105 63.5862 87.3206Z" fill="#666666"/>
<path d="M79.1105 187.791C81.4472 178.454 83.6628 169.571 85.9339 160.502C86.4285 160.936 86.802 161.143 87.0039 161.461C89.1135 164.799 91.7278 164.658 95.1546 163.35C104.532 159.769 114.076 156.623 123.508 153.185C125.941 152.296 128.217 150.973 130.973 149.655C130.216 152.76 129.272 155.477 128.944 158.265C128.459 162.385 126.234 164.476 122.569 166.233C108.731 172.869 95.0688 179.873 81.3412 186.735C80.7507 187.028 80.1501 187.301 79.1105 187.796V187.791Z" fill="#666666"/>
<path d="M45.9925 120.038C36.4387 122.426 27.5713 124.638 18.3707 126.941C18.7745 126.047 18.9915 125.502 19.2539 124.982C26.7082 110.055 34.1726 95.1325 41.5966 80.1903C42.177 79.0187 42.8685 78.3471 44.221 78.0542C47.9911 77.2311 51.7207 76.2161 55.7987 75.196C54.3199 78.4026 52.7705 81.1497 51.746 84.0887C48.9248 92.1784 46.3306 100.344 43.6356 108.474C43.0047 110.383 42.3688 112.292 41.632 114.16C41.2383 115.16 41.2686 115.882 42.1619 116.599C43.358 117.564 44.4532 118.644 45.9925 120.038Z" fill="#666666"/>
<path d="M154.824 63.3896C154.764 69.9744 149.263 75.408 142.702 75.3575C136.125 75.307 130.68 69.823 130.69 63.2583C130.7 56.5976 136.272 51.1136 142.934 51.2045C149.535 51.2954 154.89 56.7794 154.829 63.3845L154.824 63.3896Z" fill="#666666"/>
</g>
<defs>
<clipPath id="clip0_13_98">
<rect width="206" height="206" fill="white"/>
</clipPath>
</defs>
</svg>
