<svg width="260" height="269" viewBox="0 0 260 269" fill="none" xmlns="http://www.w3.org/2000/svg">
<g clip-path="url(#clip0_13_74)">
<path d="M69.7214 269C67.5866 267.512 67.0476 265.47 67.0546 262.909C67.1246 233.225 67.0966 203.541 67.1036 173.857C67.1036 169.71 67.9785 168.636 72.1152 167.991C87.6329 165.563 103.158 163.177 118.675 160.77C119.613 160.622 120.537 160.426 121.608 160.222C121.608 157.64 121.685 155.191 121.559 152.756C121.524 152.124 121.02 151.261 120.481 150.959C109.17 144.623 102.829 134.904 100.869 122.223C91.9445 120.076 89.6137 117.788 87.7939 109.374H62.911C62.911 113.865 62.911 118.293 62.911 122.728C62.911 123.69 62.897 124.658 62.911 125.619C62.939 127.661 62.127 129.191 60.1952 129.977C58.3334 130.735 56.7795 130.09 55.4426 128.756C50.865 124.181 45.9934 119.851 41.8148 114.939C38.0351 110.504 33.8984 108.546 28.0399 109.171C23.1193 109.697 18.0938 109.304 13.1172 109.269C5.42483 109.213 0.0422809 103.9 0.0352815 96.2373C-0.00671499 68.4903 -0.00671499 40.7363 0.0212826 12.9753C0.0352815 5.44554 5.41783 0.0280698 12.9072 0.0210524C51.8659 -0.00701745 90.8246 -0.00701745 129.783 0.0210524C137.126 0.0210524 142.487 5.45256 142.55 12.8279C142.613 19.7401 142.564 26.6453 142.564 33.6347C145.091 34.1539 147.492 34.5399 149.837 35.1434C170.016 40.2942 184.239 58.3992 184.477 79.2411C184.54 84.9252 184.484 90.6164 184.484 96.497C188.081 97.1707 188.956 99.6408 188.704 102.897C188.592 104.378 188.683 105.872 188.683 107.36C188.683 116.279 184.771 120.819 175.937 122.062C175.419 124.293 175.035 126.616 174.335 128.84C171.416 138.061 165.851 145.268 157.487 150.117C155.625 151.198 154.904 152.349 155.107 154.412C155.268 156.047 155.142 157.717 155.142 159.549H217.92C217.962 158.686 218.032 157.837 218.032 156.987C218.039 146.658 218.095 136.321 217.969 125.991C217.955 124.693 217.374 122.911 216.429 122.188C210.815 117.942 208.499 112.532 209.619 105.564C209.864 104.027 209.619 102.42 209.661 100.841C209.78 95.9847 211.865 92.2023 216.135 89.9076C217.724 89.0515 218.088 88.0901 218.074 86.448C217.997 79.0937 218.032 71.7394 218.046 64.3851C218.046 60.2589 219.432 58.8764 223.54 58.8624C227.124 58.8484 230.701 58.8203 234.284 58.8764C237.385 58.9256 238.953 60.4834 238.995 63.5851C239.051 67.5079 239.009 71.4306 239.009 75.6762C244.147 75.6762 249.088 75.6762 254.037 75.6762C258.705 75.6762 259.972 76.9323 259.972 81.5498C259.972 91.7041 259.937 101.865 260.007 112.02C260.021 114.181 259.636 116.097 257.837 117.36C252.441 121.149 251.223 126.272 251.44 132.714C251.916 146.707 251.587 160.728 251.587 174.735C251.587 188.798 242.887 197.555 228.93 197.562C219.852 197.562 210.766 197.562 201.268 197.562V200.664C201.268 221.415 201.233 242.165 201.317 262.916C201.324 265.477 200.771 267.519 198.65 269.007H69.7214V269ZM53.7347 115.465C53.9937 115.332 54.2527 115.191 54.5117 115.058C54.5117 112.104 54.4977 109.156 54.5117 106.202C54.5327 102.293 55.9676 100.897 59.9292 100.876C61.8471 100.862 63.7719 100.876 65.6897 100.876C73.0951 100.876 80.4935 100.876 86.8559 100.876C88.9628 98.8128 90.4326 97.3812 92.2525 95.5988C92.2525 90.6374 92.2105 85.0375 92.2525 79.4376C92.4345 57.6273 107.896 38.8907 129.23 34.6031C130.833 34.2803 132.45 34.0136 134.151 33.6978C134.151 26.526 134.221 19.5296 134.116 12.5332C134.074 9.88759 132.282 8.43498 129.356 8.43498C90.8526 8.42094 52.3489 8.42094 13.8521 8.44901C9.76446 8.44901 8.44857 9.89461 8.44157 14.077C8.44157 41.1223 8.44157 68.1605 8.44157 95.2058C8.44157 99.4654 9.77846 100.834 14.1041 100.855C21.5235 100.897 28.9498 100.925 36.3692 100.834C38.546 100.806 40.2119 101.465 41.7028 103.044C45.6644 107.227 49.7171 111.332 53.7277 115.465H53.7347ZM142.865 260.291H192.743C192.743 259.098 192.743 258.067 192.743 257.035C192.743 236.207 192.743 215.373 192.743 194.545C192.743 190.419 194.136 189.008 198.21 189.008C208.688 188.994 219.166 189.022 229.644 188.994C237.791 188.973 243.034 183.689 243.048 175.478C243.069 160.777 243.048 146.068 243.048 131.367C243.048 129.739 243.048 128.111 243.048 126.476H226.592C226.592 127.535 226.592 128.391 226.592 129.254C226.578 139.142 226.578 149.037 226.557 158.924C226.543 164.917 223.141 168.3 217.122 168.307C203.151 168.314 189.18 168.307 175.209 168.307H172.9C171.99 171.184 171.885 173.991 170.45 175.584C165.312 181.296 159.755 186.636 154.281 192.04C152.097 194.194 149.816 194.138 147.569 192.019C146.071 190.601 144.713 189.029 142.844 187.057V260.291H142.865ZM133.969 187.022C132.247 188.812 131.064 190.089 129.825 191.31C126.774 194.32 124.814 194.348 121.804 191.345C117.163 186.713 112.523 182.082 107.973 177.359C106.461 175.787 105.25 173.935 103.599 171.822C94.6673 173.205 85.1621 174.671 75.7339 176.131V260.312H92.2805V201.85H100.806V260.319H133.969V187.015V187.022ZM175.93 93.3742C175.93 89.3953 175.797 85.1006 175.958 80.827C176.224 74.0411 173.824 68.5044 169.155 63.5992C153.189 46.8134 126.977 45.7327 109.905 61.4027C106.23 64.7711 102.241 68.357 101.576 73.4868C100.701 80.1744 100.855 87.0024 100.568 93.7602C102.297 93.1707 103.543 92.4479 104.837 92.3427C112.565 91.7392 116.715 87.641 117.219 79.8516C117.38 77.4095 118.591 75.9218 120.971 75.5288C123.302 75.1429 124.975 76.6306 125.99 78.806C126.9 80.7639 128.124 82.9042 129.818 84.0831C132.352 85.8445 135.32 87.1076 138.274 88.0901C148.661 91.5427 159.503 91.7883 170.296 92.3076C172.109 92.3918 173.894 92.9813 175.923 93.3812L175.93 93.3742ZM109.149 100.595C109.149 106.981 108.876 113.283 109.205 119.549C109.954 133.907 120.985 145.205 135.572 146.924C149.053 148.517 162.527 139.507 166.411 126.104C168.784 117.893 167.286 109.472 167.685 101.079C152.118 100.153 136.839 99.4724 123.463 90.5322C120.124 96.0128 115.379 99.2899 109.156 100.595H109.149ZM238.085 117.634C236.783 112.946 232.528 109.704 227.544 109.346C226.599 109.276 225.591 109.269 224.744 108.918C222.7 108.083 221.854 106.371 222.281 104.251C222.735 101.999 224.296 100.848 226.592 100.834C230.659 100.813 234.732 100.834 238.806 100.834V96.7496C233.011 96.7496 227.362 96.6654 221.714 96.7917C219.509 96.8408 218.242 98.3145 218.13 100.553C218.039 102.385 218.319 104.251 218.06 106.055C217.465 110.16 218.76 113.367 222.127 115.718C223.141 116.427 224.219 117.5 225.318 117.556C229.49 117.774 233.676 117.641 238.085 117.641V117.634ZM129.853 155.317C130.14 157.773 129.706 160.658 130.875 162.573C132.688 165.549 135.579 167.857 138.183 170.622C142.354 165.724 149.067 162.889 146.323 155.317H129.86H129.853ZM151.125 182.952C155.058 178.994 159.027 175.092 162.856 171.064C163.415 170.475 163.352 169.303 163.639 168.173C160.077 168.173 157.032 168.138 153.994 168.201C153.357 168.215 152.58 168.433 152.132 168.84C149.494 171.219 146.932 173.689 144.475 176.005C146.897 178.531 148.92 180.643 151.132 182.945L151.125 182.952ZM113.755 170.117C117.94 174.321 122.035 178.433 125.745 182.159C127.732 180.412 129.937 178.475 132.415 176.299C129.937 173.921 127.642 171.647 125.255 169.479C124.744 169.015 123.862 168.643 123.204 168.721C120.005 169.1 116.827 169.647 113.762 170.117H113.755ZM239.226 84.2936C239.184 85.1287 239.114 85.7322 239.142 86.3287C239.163 86.9041 239.282 87.4725 239.352 87.9989C244.224 88.3918 247.033 91.1965 247.779 96.4128H251.3V84.2936H239.226ZM226.69 67.4939V87.9778H230.323V67.4939H226.69ZM247.037 115.606C251.153 113.199 252.224 109.788 251.132 105.395H248.269C246.925 107.044 245.764 108.483 244.574 109.942C245.351 111.732 246.176 113.627 247.037 115.606ZM100.323 113.199V105.339H96.8371C96.0812 110.553 96.7811 112.16 100.323 113.199ZM176.371 105.318V113.149C179.941 112.251 180.907 109.971 179.815 105.318H176.371Z" fill="#666666"/>
<path d="M29.4675 42.0344C36.2989 42.0485 41.9894 47.7466 41.9824 54.5816C41.9824 61.571 36.2709 67.2692 29.3065 67.2411C22.4541 67.213 16.8126 61.557 16.7916 54.6939C16.7706 47.7045 22.4611 42.0274 29.4675 42.0344ZM29.2785 58.8272C31.5253 58.8693 33.4502 57.0307 33.5341 54.7781C33.6181 52.4343 31.6513 50.4203 29.3065 50.4484C27.0597 50.4764 25.1909 52.3711 25.1839 54.6237C25.1839 56.8834 27.0317 58.7851 29.2785 58.8202V58.8272Z" fill="#666666"/>
<path d="M83.9089 54.5958C83.9019 61.5852 78.1904 67.2763 71.219 67.2483C64.3666 67.2132 58.732 61.5571 58.718 54.687C58.704 47.6976 64.3946 42.0205 71.401 42.0416C78.2324 42.0556 83.9159 47.7608 83.9089 54.5958ZM75.4606 54.6168C75.4536 52.3642 73.5778 50.4765 71.324 50.4555C69.0842 50.4274 67.1663 52.287 67.1103 54.5396C67.0473 56.8975 69.0212 58.8905 71.373 58.8343C73.6198 58.7782 75.4746 56.8765 75.4606 54.6239V54.6168Z" fill="#666666"/>
<path d="M138.28 117.641C142.298 117.641 146.309 117.606 150.326 117.648C153.672 117.683 155.261 119.388 155.184 122.728C154.988 131.374 147.436 138.679 138.602 138.756C129.587 138.84 121.895 131.683 121.573 122.918C121.447 119.402 123.022 117.676 126.493 117.648C130.42 117.606 134.347 117.641 138.28 117.641Z" fill="#666666"/>
</g>
<defs>
<clipPath id="clip0_13_74">
<rect width="260" height="269" fill="white"/>
</clipPath>
</defs>
</svg>
