<svg width="55" height="61" viewBox="0 0 55 61" fill="none" xmlns="http://www.w3.org/2000/svg">
<g clip-path="url(#clip0_17_49)">
<path d="M46.4329 11.5276C51.0597 12.4956 53.8858 17.0483 52.6275 21.1482C55.3319 23.7805 55.7595 27.69 53.6912 30.7563C53.945 31.3152 54.3134 31.8211 54.5289 32.3956C55.8638 35.9304 54.2787 39.7524 50.8094 41.729C51.1397 45.0389 49.2174 48.3613 46.0436 50.0318C45.55 50.291 44.5836 50.5596 44.2221 50.7937C43.9961 50.9374 43.4573 51.7555 43.1827 52.0334C38.8862 56.4456 31.03 55.8117 27.5365 50.9436C27.4148 50.9155 27.4009 51.0154 27.3418 51.0685C26.9525 51.4214 26.584 52.024 26.1634 52.4081C22.2179 56.0115 15.4463 55.8179 11.7685 51.9928C11.5044 51.718 10.9968 50.9343 10.7709 50.7906C10.4094 50.5564 9.44299 50.291 8.94937 50.0287C5.77562 48.355 3.85678 45.0358 4.18354 41.7258C0.0399398 39.3964 -1.21496 34.5284 1.29484 30.7501C-0.766532 27.6775 -0.335487 23.7836 2.3655 21.1482C1.09322 17.0514 3.9402 12.4925 8.56004 11.5276C7.81961 8.98585 8.78599 6.29733 11.2019 4.79538C12.0953 4.23957 13.0443 3.68375 13.9551 3.14667C17.1705 1.25441 22.8471 -1.38103 26.4867 0.854719C26.8656 1.08891 27.1437 1.40741 27.526 1.62911C29.7612 -0.600392 33.0358 -0.163234 35.8828 0.732939C38.7297 1.62911 41.1248 3.22474 43.5929 4.6736C46.1479 6.17555 47.2012 8.87344 46.4364 11.5245L46.4329 11.5276ZM25.993 11.8274V4.59554C25.993 4.53309 25.708 3.96478 25.6419 3.86174C24.7103 2.3754 22.7984 2.57837 21.2203 2.93122C20.0001 3.20288 18.8599 3.70561 17.7337 4.18336C18.0848 4.46439 18.5367 4.6174 18.9295 4.87033C19.7846 5.41989 21.182 6.75323 21.1612 7.74308C21.1334 9.05455 19.3223 9.51044 18.4497 8.44877C17.8206 7.68375 17.7684 7.23098 16.6699 6.7501C13.4753 5.35744 10.2043 8.30826 11.6399 11.1748C12.2622 11.359 12.9226 11.4027 13.5483 11.5776C17.0002 12.5393 19.5934 15.6525 19.6595 18.9093C19.6977 20.6798 17.0419 20.9546 16.6908 19.3965C16.6282 19.1185 16.6908 18.8687 16.6421 18.6158C15.2447 11.1279 3.45006 13.1107 5.31329 20.6236C5.35848 20.811 5.50101 20.9827 5.53924 21.1701C5.76867 22.3754 4.9031 22.569 4.22525 23.3277C1.6946 26.1505 3.18935 30.4628 7.01662 31.5338C7.764 31.743 8.30628 31.6712 9.00151 31.7743C10.3503 31.9741 10.7222 33.6228 9.54032 34.2442C8.92504 34.5689 8.20199 34.4534 7.53109 34.3691C6.08153 34.1849 4.69801 33.6384 3.51611 32.8828C2.21255 35.1622 3.3423 38.0038 5.65048 39.3558C6.2171 39.6868 6.86714 39.7867 7.15914 40.3988C7.472 41.042 7.18695 41.3668 7.14176 41.9819C6.95752 44.4487 8.45923 46.8656 10.9273 47.9553C11.4765 48.1989 12.4116 48.3394 12.8149 48.6579C13.1208 48.9015 13.2842 49.348 13.5379 49.6571C17.3999 54.3878 25.1831 52.483 26 46.7781V16.0584C25.9061 15.0467 25.0301 14.1693 23.9351 13.9476C23.4276 13.8445 22.9514 13.9257 22.503 13.6603C21.6131 13.1295 21.6374 11.8867 22.569 11.4058C23.5006 10.925 25.1275 11.3965 26 11.8274H25.993ZM28.9965 4.59554V15.4995C30.0289 15.1123 32.1042 14.4847 32.8689 15.5057C33.4599 16.2926 33.0566 17.373 32.0207 17.5822C31.3012 17.7259 30.8041 17.601 30.1227 18.0506C29.7438 18.3004 28.9965 19.1654 28.9965 19.5869V39.8586C30.0741 38.9312 32.5109 37.4729 34.0369 37.6915C34.6139 37.7727 35.1354 38.4253 35.1632 38.9343C35.2362 40.252 33.512 40.3363 32.5248 40.8234C29.1529 42.4846 27.971 46.3285 29.9281 49.3261C32.2015 52.8109 37.7112 53.3886 40.8015 50.4284C41.396 49.8601 41.8931 48.7235 42.5952 48.4425C43.0193 48.2707 43.5651 48.1864 44.0135 47.9928C46.5129 46.9124 48.0459 44.4862 47.8547 41.9944C47.806 41.3449 47.4897 40.9702 47.8895 40.3082C48.1988 39.7961 48.8385 39.6681 49.346 39.3683C51.6993 37.9913 52.7665 35.2091 51.4803 32.8953C50.1281 33.7571 48.3205 34.4159 46.645 34.469C44.2012 34.544 44.2499 32.0428 45.9949 31.7868C46.8709 31.6587 47.4306 31.7524 48.3518 31.4308C51.9253 30.1818 53.2115 26.0288 50.7712 23.3402C50.0864 22.5877 49.2278 22.3785 49.4572 21.1826C49.492 20.9952 49.638 20.8235 49.6832 20.6361C51.5707 13.0233 39.5953 11.2372 38.3543 18.6283C38.257 19.2122 38.4725 19.5807 37.8885 20.0834C36.8596 20.9671 35.3127 20.149 35.337 18.9218C35.4065 15.6681 38.0032 12.5487 41.4481 11.5901C42.0738 11.4152 42.7343 11.3715 43.3565 11.1873C45.1016 7.37462 39.6579 4.52997 36.8735 7.93043C36.7344 8.09905 36.6718 8.30514 36.5467 8.46126C35.6742 9.51981 33.8631 9.06704 33.8353 7.75557C33.8144 6.77508 35.2188 5.42614 36.067 4.88282C36.4598 4.62989 36.9082 4.47688 37.2628 4.19585C35.2327 3.29968 30.8562 1.47923 29.3545 3.87111C29.2641 4.01474 29.0277 4.47064 29.0034 4.60491L28.9965 4.59554Z" fill="#FF6A00"/>
<path d="M14.3108 26.6665C11.0467 26.0639 8.33873 23.7875 7.54269 20.8679C7.34803 20.1529 7.0595 18.7665 7.55312 18.1607C8.17883 17.3957 9.34683 17.3957 9.97254 18.1607C10.3445 18.6166 10.2124 19.2442 10.3167 19.8C10.9632 23.2879 15.2946 25.1927 18.7881 23.5315C19.5042 23.1911 20.3628 22.2481 21.0337 22.1763C22.2365 22.0451 23.0673 23.0974 22.5841 24.0935C22.2851 24.7087 20.7487 25.6392 20.0673 25.9546C19.2748 26.3199 18.3605 26.5791 17.4776 26.7009C17.0917 27.6095 16.7615 28.4839 16.0593 29.2489C14.8288 30.5885 12.5032 31.7344 10.5183 31.4565C9.39549 31.3004 8.98878 29.9046 9.76049 29.2114C10.3062 28.718 11.2935 28.8492 12.0409 28.6369C13.0976 28.334 13.9006 27.5783 14.3108 26.6696V26.6665Z" fill="#FF6A00"/>
<path d="M12.8022 39.0975C13.0385 36.1279 15.0512 33.4519 18.0929 32.2715C19.1357 31.8687 21.437 31.2786 22.4311 31.8469C23.5887 32.5089 23.1507 34.1107 21.7568 34.2887C21.2041 34.3605 20.773 34.3231 20.1821 34.448C17.5645 35.0069 15.5831 37.3488 15.8542 39.7782C18.2424 40.7868 20.116 42.7352 20.7452 45.0522C20.9329 45.7391 21.2075 47.1193 20.773 47.7188C20.1994 48.5088 18.8611 48.4995 18.2806 47.7188C17.9573 47.2879 18.0199 46.2918 17.86 45.6985C17.3142 43.6876 15.3676 42.1232 13.0941 41.811C12.312 41.7048 11.5646 41.914 11.0258 41.1958C10.1498 40.0311 11.3943 38.8445 12.8056 39.0943L12.8022 39.0975Z" fill="#FF6A00"/>
<path d="M38.5884 26.8163C39.0334 27.8186 39.9859 28.618 41.1712 28.8772C42.082 29.077 43.3682 28.8553 43.5107 30.0731C43.754 32.1527 40.9522 31.7093 39.5687 31.216C37.5213 30.4915 36.023 28.8303 35.5051 26.9225C34.5005 26.6883 33.5862 26.4728 32.665 26.0263C32.0185 25.714 30.6002 24.8303 30.3152 24.2402C29.971 23.5314 30.2595 22.7257 31.0834 22.4291C32.3626 21.967 32.9744 23.1004 33.9477 23.6032C37.4517 25.408 41.9221 23.5033 42.586 19.9467C42.6556 19.5782 42.6278 19.1254 42.7008 18.7757C42.8294 18.1387 43.6046 17.7047 44.2963 17.7515C46.2325 17.892 45.5999 20.5025 45.1862 21.6079C44.2129 24.2152 41.6023 26.2886 38.5919 26.8132L38.5884 26.8163Z" fill="#FF6A00"/>
<path d="M45.2348 42.4542C44.7169 42.9507 44.2545 42.7758 43.6462 42.8633C40.542 43.3098 38.8143 44.9117 38.3381 47.6876C38.2616 48.131 38.4354 48.3621 38.0878 48.8117C37.2049 49.9484 35.3312 49.3457 35.3312 47.9156C35.3312 45.6267 36.8294 43.1287 38.8456 41.7735C39.1272 41.583 40.4516 40.9491 40.5142 40.8742C40.7088 40.6338 40.4725 39.5752 40.3821 39.2567C39.8398 37.3239 37.9488 35.7938 35.7692 35.4566C34.6846 35.2879 33.3185 35.4909 33.2942 34.0514C33.2629 32.2809 35.8596 32.6869 37.1041 32.9866C40.6984 33.8484 43.3403 36.8305 43.5489 40.1623L43.6427 40.2247C45.1132 39.8157 46.2881 41.4425 45.2348 42.4542Z" fill="#FF6A00"/>
</g>
<defs>
<clipPath id="clip0_17_49">
<rect width="55" height="61" fill="white"/>
</clipPath>
</defs>
</svg>
