<svg width="55" height="66" viewBox="0 0 55 66" fill="none" xmlns="http://www.w3.org/2000/svg">
<g clip-path="url(#clip0_17_57)">
<path d="M22.0581 26.1662C22.3379 26.1371 22.6484 26.2794 22.8381 26.4799L27.8712 33.4714C28.044 33.5097 28.3759 32.9527 28.4768 32.8211C29.9297 30.9236 31.3781 28.1815 32.912 26.4921C33.2959 26.0698 33.6308 26.0484 34.1477 26.2749C35.6481 26.9313 37.5062 28.7278 39.0356 29.5158C43.1511 30.131 47.2514 30.1876 49.5821 34.1968C51.7554 37.9351 50.3269 44.8195 50.8255 49.1102C50.7582 50.2533 50.0547 51.127 48.9918 51.5142C46.9195 52.2671 43.691 52.7934 41.4551 53.2525C33.8877 54.8057 28.6757 55.5494 20.9003 54.5318C16.9668 54.0161 10.8447 53.2219 7.17883 51.9962C5.22583 51.3428 5.22889 49.8631 5.14477 48.0758C5.00407 45.0597 4.90772 40.7308 5.14018 37.7637C5.4017 34.4278 8.08881 31.5434 11.2546 30.7094C12.7962 30.3024 15.1163 30.2519 16.4789 29.7515C17.9135 29.2251 20.0454 27.118 21.5687 26.3697C21.7231 26.2932 21.8791 26.1846 22.0565 26.1662H22.0581ZM21.977 39.2006L26.6554 35.1195L21.9204 28.4539L18.1995 30.8425L21.9785 39.2021L21.977 39.2006ZM33.8786 39.2006L37.6301 30.8946L33.8342 28.4416L29.1941 35.1225L33.8786 39.2006ZM31.8216 40.0024L30.6654 43.1485L31.3536 53.0107C31.508 53.1209 33.7394 52.7567 34.1477 52.697C36.8975 52.2915 39.6565 51.7667 42.3742 51.1913C44.0978 50.8271 46.8354 50.3834 48.3969 49.7728C48.8863 49.5815 48.9505 49.3979 48.9964 48.8838C49.1692 46.971 48.9046 44.9435 48.871 43.0414C48.8144 39.7315 49.5516 36.1998 46.8752 33.6994C44.8472 31.805 41.9552 31.8739 39.3705 31.4577L34.8467 41.3704C33.6522 42.4186 32.808 40.4921 31.82 40.0024H31.8216ZM16.5783 31.6566C14.2935 32.0943 11.5115 32.0943 9.57382 33.4913C8.20045 34.4829 7.11001 36.2809 6.9739 37.9917C6.75061 40.8119 6.83778 44.9832 6.9739 47.8509C7.00143 48.4476 7.14824 49.1194 7.14366 49.7437C7.24612 50.0559 7.58259 50.1829 7.87011 50.2778C9.69312 50.873 12.4659 51.2724 14.4173 51.6305C17.7575 52.2426 21.1252 52.7292 24.4974 53.124L25.1535 42.9496L24.0355 40.0024C23.0506 40.5211 22.211 42.4201 21.0089 41.3704L16.5799 31.6566H16.5783ZM29.5153 41.2465L30.3213 38.59L27.888 36.46L25.5496 38.5365C25.3325 38.9083 26.3296 40.7139 26.3388 41.251L29.5168 41.2465H29.5153ZM28.8439 43.095H27.0117L26.4963 53.2892H29.3578L28.8424 43.095H28.8439Z" fill="#FF6A00"/>
<path d="M38.3658 16.7691L37.4481 19.0048C38.953 20.5901 38.0476 22.9083 36.2491 23.7576C34.9277 24.3819 34.2762 23.9565 33.1384 23.2863L30.9223 24.2687C31.1058 26.8425 28.8408 28.1248 26.5575 27.2296C25.0434 26.6359 25.1138 25.5265 24.8415 24.1356L22.7203 23.2863C21.5289 23.9917 20.7918 24.3636 19.452 23.6857C17.7437 22.8196 16.9408 20.5028 18.4105 19.0048L17.525 16.8181C17.4241 16.6804 16.2296 16.6375 15.9299 16.558C13.6496 15.952 13.5716 11.6521 15.8855 10.9406C16.2816 10.8181 17.366 10.8396 17.5204 10.6008L18.4029 8.54118C18.2377 8.01632 17.7988 7.7164 17.678 7.13492C17.2467 5.05995 19.6203 2.85644 21.6666 3.60166C22.0122 3.72714 22.3915 4.16937 22.7111 4.151C22.8182 4.14488 24.5693 3.44864 24.6932 3.37366C24.7987 3.30939 24.8844 3.29868 24.9333 3.15637C25.0923 2.69118 24.9792 1.9781 25.2376 1.39968C26.1063 -0.543685 30.02 -0.468704 30.7143 1.64911C30.8565 2.08522 30.8122 3.13341 31.0875 3.33846C31.1762 3.40426 33.0374 4.14488 33.1491 4.151C33.5115 4.1709 33.9918 3.57717 34.4246 3.48842C36.5596 3.04619 38.9576 5.493 38.0247 7.54807C37.8993 7.82504 37.4344 8.27033 37.4573 8.53965C37.8672 9.01861 38.0216 10.1372 38.2954 10.558C38.4942 10.8625 39.6076 10.8059 40.0649 10.965C41.8986 11.6062 42.1173 14.6069 40.9137 15.9352C40.2392 16.6804 39.2864 16.6192 38.3688 16.7676L38.3658 16.7691ZM29.448 4.69117C28.8347 4.08826 29.4771 2.12347 28.4187 1.88476C28.0976 1.81284 27.1157 1.84498 26.9245 2.11582C26.6278 2.5351 26.8894 4.30402 26.3587 4.72942C26.062 4.96661 24.7513 5.26959 24.2665 5.47005C23.823 5.65367 23.2265 6.15099 22.8243 6.20761C21.7124 6.36369 20.7551 4.27954 19.7044 5.94594C18.958 7.12879 20.5394 7.47156 20.4247 8.51976C20.3849 8.88701 19.709 9.97499 19.5147 10.4524C19.3205 10.9298 19.1645 12.0194 18.8128 12.2703C17.9731 12.8656 16.17 12.0744 16.0171 13.4853C15.8029 15.4623 17.4486 14.6161 18.5665 15.0629C19.189 15.3124 19.3694 16.6896 19.6294 17.3215C19.813 17.7684 20.4339 18.6253 20.4522 19.0017C20.4951 19.877 18.9366 20.4615 19.738 21.5648C20.8514 23.0996 21.7797 21.1226 22.7081 21.2174C23.0277 21.2496 24.0723 21.8923 24.4974 22.0713C24.9899 22.2779 25.831 22.4263 26.2027 22.6558C27.2748 23.32 26.0696 25.5587 27.7703 25.678C29.5168 25.8004 28.902 24.2182 29.2385 23.1562C29.448 22.4982 30.7403 22.3314 31.3582 22.0698C31.7971 21.8846 32.7851 21.2526 33.1475 21.2159C34.0881 21.1195 34.7335 22.8548 35.8882 21.7928C37.1943 20.5931 35.3498 19.9856 35.4018 19.0002C35.4248 18.5549 35.9019 18.0392 36.0763 17.6291C36.3623 16.9573 36.6789 15.3047 37.2875 15.0614C38.1838 14.7018 39.7284 15.2971 39.8385 13.9428C39.9838 12.1754 38.7236 12.7309 37.5368 12.4601C36.5382 12.2336 36.6834 11.2726 36.3393 10.4509C36.1344 9.95969 35.4232 8.85334 35.4018 8.42641C35.356 7.53736 37.1101 6.81357 35.9463 5.6904C34.7824 4.56722 34.1829 6.36675 33.0313 6.20608C32.6337 6.15099 32.0907 5.68427 31.6686 5.50524C31.2083 5.30937 29.6606 4.89928 29.448 4.69117Z" fill="#FF6A00"/>
<path d="M27.2151 7.73353C32.1289 7.17806 35.596 12.4236 33.1383 16.7526C30.6363 21.1596 23.9927 20.5766 22.263 15.8329C20.9339 12.1895 23.3702 8.16811 27.2166 7.73353H27.2151ZM27.3282 9.56367C21.9892 10.289 22.8411 18.6531 28.6634 17.8865C33.7684 17.2132 32.9227 8.80468 27.3282 9.56367Z" fill="#FF6A00"/>
</g>
<defs>
<clipPath id="clip0_17_57">
<rect width="55" height="66" fill="white"/>
</clipPath>
</defs>
</svg>
