<svg width="111" height="89" viewBox="0 0 111 89" fill="none" xmlns="http://www.w3.org/2000/svg">
<path d="M108.57 13.395C99.0133 13.865 91.4933 16.5284 86.01 21.385C80.6833 26.2417 77.8633 32.2734 77.55 39.48C79.1167 38.6967 80.6833 38.1484 82.25 37.835C83.9733 37.365 85.6183 37.13 87.185 37.13C94.3917 37.13 100.032 39.5584 104.105 44.415C108.335 49.2717 110.45 55.1467 110.45 62.04C110.45 69.7167 108.178 76.0617 103.635 81.075C99.2483 85.9317 93.1383 88.36 85.305 88.36C77.785 88.36 71.44 85.6184 66.27 80.135C61.2567 74.6517 58.75 66.505 58.75 55.695C58.75 42.535 60.865 31.8817 65.095 23.735C69.325 15.5884 75.2 9.63502 82.72 5.87502C90.24 2.11502 98.8567 0.156691 108.57 2.60472e-05V13.395ZM49.82 13.395C40.2633 13.865 32.7433 16.5284 27.26 21.385C21.9333 26.2417 19.1133 32.2734 18.8 39.48C20.3667 38.6967 21.9333 38.1484 23.5 37.835C25.2233 37.365 26.8683 37.13 28.435 37.13C35.6417 37.13 41.2817 39.5584 45.355 44.415C49.585 49.2717 51.7 55.1467 51.7 62.04C51.7 69.7167 49.4283 76.0617 44.885 81.075C40.4983 85.9317 34.3883 88.36 26.555 88.36C19.035 88.36 12.69 85.6184 7.52001 80.135C2.50667 74.6517 6.76885e-06 66.505 6.76885e-06 55.695C6.76885e-06 42.535 2.11501 31.8817 6.34501 23.735C10.575 15.5884 16.45 9.63502 23.97 5.87502C31.49 2.11502 40.1067 0.156691 49.82 2.60472e-05V13.395Z" fill="#FF6A00"/>
</svg>
