<svg width="55" height="55" viewBox="0 0 55 55" fill="none" xmlns="http://www.w3.org/2000/svg">
<g clip-path="url(#clip0_17_86)">
<path d="M55.0001 4.73636C54.8963 5.80281 54.806 6.87196 54.6848 7.93707C54.329 11.0731 53.5165 14.0945 52.2836 16.9932C49.5172 23.4917 45.1972 28.7943 39.6617 33.1181C38.1296 34.3153 36.4574 35.3319 34.8472 36.4321C34.6343 36.2312 34.5022 36.1139 34.3783 35.9885C29.2444 30.8517 24.1132 25.7122 18.9685 20.5862C18.6384 20.2573 18.6181 20.0415 18.8607 19.6479C22.9732 12.9417 28.4386 7.65394 35.3875 3.95573C40.4985 1.23499 45.9922 0 51.7756 0.0188753C52.8508 0.02292 53.9261 0.00674119 55.0014 0V4.73636H55.0001ZM38.0973 10.4407C34.54 10.4475 31.6429 13.3651 31.659 16.9258C31.6752 20.4608 34.5736 23.3501 38.1067 23.3542C41.6654 23.3582 44.5679 20.4528 44.5652 16.8894C44.5612 13.3192 41.6681 10.434 38.0973 10.4407ZM43.9939 8.86062C44.7013 9.56844 45.4505 10.3167 46.1525 11.0178C46.8344 10.3396 47.566 9.61023 48.2694 8.9105C47.5539 8.19593 46.8128 7.45575 46.1013 6.74658C45.3993 7.45171 44.6595 8.19459 43.9939 8.86196V8.86062ZM30.1768 22.7798C29.4465 23.5106 28.7081 24.2494 28.0128 24.9451C28.6865 25.6206 29.4168 26.3526 30.1148 27.0537C30.8303 26.3365 31.5688 25.5949 32.2816 24.8804C31.5836 24.1833 30.8398 23.4405 30.1782 22.7798H30.1768Z" fill="#FF6A00"/>
<path d="M0 54.9149C1.52265 52.2373 3.00757 49.5368 4.58008 46.8902C6.27251 44.0414 8.03906 41.2357 9.79078 38.4219C10.4942 37.2921 11.4563 36.4791 12.7741 36.1084C14.7172 35.5623 16.8947 36.3537 18.0616 38.0714C19.2043 39.754 19.18 42.1903 17.8406 43.6841C17.0874 44.5241 16.1522 45.2346 15.2076 45.8669C10.3971 49.0865 5.43842 52.0675 0.370557 54.8651C0.280276 54.9149 0.185952 54.9554 0.0943235 55.0012C0.0633315 54.9729 0.0323395 54.9446 0 54.9149Z" fill="#FF6A00"/>
<path d="M16.9769 23.3136C21.852 28.1956 26.7218 33.0722 31.6293 37.9865C30.8383 38.3033 30.015 38.6795 29.1594 38.964C27.8874 39.3873 26.5978 39.7621 25.3029 40.114C25.1035 40.1679 24.772 40.0601 24.6184 39.9091C21.4222 36.7394 18.2421 33.5535 15.0688 30.3609C14.9435 30.2341 14.8276 29.9847 14.8627 29.8283C15.3653 27.6253 15.9945 25.4614 16.9189 23.3918C16.9391 23.3473 16.9782 23.3109 16.9769 23.3136Z" fill="#FF6A00"/>
<path d="M21.1217 50.1384C21.7456 47.6455 22.3371 45.274 22.9435 42.8526C23.0755 42.9685 23.1753 43.0238 23.2292 43.1087C23.7924 43.9999 24.4904 43.9622 25.4053 43.613C27.9089 42.6571 30.457 41.8171 32.9755 40.899C33.6249 40.6617 34.2327 40.3084 34.9684 39.9565C34.7663 40.7857 34.5143 41.5111 34.4267 42.2553C34.2973 43.3554 33.7031 43.9136 32.7248 44.3828C29.03 46.1544 25.3824 48.0244 21.7173 49.8566C21.5596 49.9348 21.3993 50.0076 21.1217 50.1398V50.1384Z" fill="#FF6A00"/>
<path d="M12.2796 32.049C9.72881 32.6867 7.3613 33.2773 4.90485 33.8921C5.01264 33.6534 5.07059 33.5078 5.14065 33.3689C7.13088 29.3835 9.1238 25.3995 11.1059 21.4101C11.2609 21.0973 11.4455 20.918 11.8066 20.8398C12.8132 20.62 13.809 20.349 14.8977 20.0767C14.5029 20.9328 14.0892 21.6662 13.8157 22.4509C13.0625 24.6108 12.3699 26.7909 11.6503 28.9615C11.4819 29.4712 11.3121 29.9808 11.1154 30.4797C11.0103 30.7466 11.0184 30.9394 11.2569 31.1309C11.5762 31.3884 11.8686 31.6769 12.2796 32.049Z" fill="#FF6A00"/>
<path d="M41.3366 16.9245C41.3204 18.6826 39.8517 20.1333 38.0999 20.1198C36.3442 20.1063 34.8903 18.6421 34.8929 16.8894C34.8956 15.1111 36.3833 13.6469 38.1619 13.6712C39.9244 13.6955 41.3541 15.1596 41.3379 16.9231L41.3366 16.9245Z" fill="#FF6A00"/>
</g>
<defs>
<clipPath id="clip0_17_86">
<rect width="55" height="55" fill="white"/>
</clipPath>
</defs>
</svg>
