<svg width="55" height="48" viewBox="0 0 55 48" fill="none" xmlns="http://www.w3.org/2000/svg">
<g clip-path="url(#clip0_17_70)">
<path d="M12.4401 34.8396C10.734 33.9565 9.04985 33.2681 7.56052 32.2806C3.04225 29.2833 0.544323 24.9772 0.0808712 19.5649C-0.42657 13.6288 1.41938 8.5077 5.78997 4.42792C8.5864 1.81831 11.972 0.32123 15.7534 0.155063C20.2293 -0.0427543 24.7255 -0.0554146 29.2014 0.14082C33.1682 0.3149 36.5726 2.08893 39.5042 4.78399C39.7979 5.0546 40.2221 5.26033 40.6149 5.32838C48.0238 6.60074 53.7439 12.4894 54.7871 19.989C55.5789 25.6941 54.1901 30.7535 50.2515 35.0042C48.2595 37.1548 45.793 38.5839 43.0405 39.5144C42.6525 39.6457 42.5331 39.804 42.5378 40.2107C42.5598 42.3218 42.5394 44.4345 42.5535 46.5456C42.5567 47.1327 42.3807 47.5948 41.8434 47.8607C41.3093 48.1234 40.838 47.9921 40.3729 47.6376C37.355 45.3445 34.3339 43.0561 31.2956 40.7915C31.0081 40.5779 30.5933 40.4481 30.2335 40.4386C28.1409 40.3832 26.0311 40.5763 23.9762 40.035C22.8073 39.7264 21.6448 39.364 20.523 38.9146C19.9905 38.701 19.6606 38.7405 19.2238 39.0839C17.725 40.2598 16.187 41.3849 14.6757 42.5434C14.2044 42.9042 13.7284 43.1004 13.1596 42.8187C12.5674 42.526 12.4323 42.0116 12.437 41.3897C12.4543 39.1599 12.4433 36.9301 12.4433 34.838L12.4401 34.8396ZM14.9396 39.1567C15.2098 38.9621 15.3811 38.8466 15.5445 38.7215C17.9277 36.9222 20.3015 35.1133 22.6989 33.3346C23.0115 33.1019 23.4294 32.9168 23.8096 32.8915C24.8041 32.825 25.8064 32.8582 26.804 32.8535C29.9193 32.8408 32.8713 32.1841 35.5499 30.5319C42.6493 26.153 44.6838 16.0406 39.8639 8.99196C36.824 4.54661 32.4251 2.68396 27.2297 2.5352C24.0374 2.44341 20.8404 2.4814 17.6481 2.52729C13.4236 2.58743 9.6814 3.91992 6.70274 7.04385C4.07127 9.8038 2.69977 13.1509 2.52381 16.9521C2.28502 22.0701 4.04928 26.3461 8.06953 29.5776C9.75995 30.937 11.7049 31.8043 13.7865 32.374C14.6694 32.6161 14.9318 32.9848 14.938 33.9011C14.9428 34.5721 14.938 35.2431 14.938 35.9141C14.938 36.9523 14.938 37.9904 14.938 39.1567H14.9396ZM42.53 8.47447C42.9573 9.33379 43.3893 10.0807 43.7098 10.872C46.0381 16.6293 45.3861 22.1413 42.1089 27.3083C39.2984 31.741 35.2718 34.4867 30.0403 35.1846C28.2635 35.4219 26.4442 35.327 24.6438 35.3903C24.4349 35.3982 24.182 35.3855 24.0249 35.4947C23.3996 35.9236 22.8042 36.3968 22.1962 36.8541C22.2025 36.9159 22.2088 36.9776 22.215 37.0393C23.3776 37.2893 24.5292 37.6549 25.7043 37.7609C27.3193 37.9081 28.9516 37.8812 30.576 37.886C31.3333 37.8875 31.9632 38.0917 32.5759 38.5664C34.8586 40.3341 37.1743 42.0591 39.4806 43.7967C39.6393 43.917 39.8089 44.0199 40.0462 44.1781C40.0462 42.393 40.0462 40.7361 40.0462 39.0776C40.0462 37.992 40.3007 37.7388 41.3014 37.389C42.5535 36.9507 43.8575 36.5582 44.9886 35.8888C50.4416 32.6636 52.8924 27.7292 52.4243 21.4655C51.9702 15.3791 48.7701 11.1189 43.1898 8.70236C43.0013 8.62006 42.8002 8.56626 42.5284 8.4713L42.53 8.47447Z" fill="#FF6A00"/>
<path d="M32.536 11.4668H12.43C11.7662 11.4668 11.2281 12.0085 11.2281 12.6766C11.2281 13.3448 11.7662 13.8865 12.43 13.8865H32.536C33.1997 13.8865 33.7378 13.3448 33.7378 12.6766C33.7378 12.0085 33.1997 11.4668 32.536 11.4668Z" fill="#FF6A00"/>
<path d="M32.536 16.4834H12.43C11.7662 16.4834 11.2281 17.0251 11.2281 17.6932C11.2281 18.3614 11.7662 18.9031 12.43 18.9031H32.536C33.1997 18.9031 33.7378 18.3614 33.7378 17.6932C33.7378 17.0251 33.1997 16.4834 32.536 16.4834Z" fill="#FF6A00"/>
</g>
<defs>
<clipPath id="clip0_17_70">
<rect width="55" height="48" fill="white"/>
</clipPath>
</defs>
</svg>
