<svg width="78" height="61" viewBox="0 0 78 61" fill="none" xmlns="http://www.w3.org/2000/svg">
<g clip-path="url(#clip0_17_95)">
<path d="M60.6888 41.1453C61.2725 45.0139 63.1889 48.9207 65.3082 52.1787C65.5669 52.5761 66.031 52.9406 66.2988 53.4103C68.1645 56.6828 66.0479 60.7501 62.31 60.9922C58.684 61.2265 54.5041 55.967 52.8737 53.0643C52.3875 52.1984 51.9662 51.2695 51.5957 50.347C51.3005 50.2918 51.389 50.3628 51.3083 50.5142C49.8587 53.1932 49.1592 57.4829 45.7594 58.3053C42.4571 59.104 39.5279 56.7039 39.4031 53.3182L43.1604 32.2739L41.2297 30.1462C40.2403 28.9711 39.8113 27.5211 39.1404 26.2144C39.0715 26.0789 39.2093 25.9657 38.87 26.0276C38.3447 27.8474 37.1954 29.7422 35.9486 31.1567C35.6132 31.537 34.8682 31.9897 34.8292 32.4002L38.5957 53.3182C38.4839 57.15 34.655 59.633 31.2226 57.8882C28.4235 56.4644 28.0867 52.5879 26.4018 50.2155C25.1276 53.7393 22.5443 57.3973 19.5085 59.6053C16.7808 61.5896 13.1612 61.5238 11.5244 58.2382C9.79779 54.7749 12.5294 52.6708 14.0362 49.9904C15.5431 47.3101 16.8783 44.1652 17.3099 41.144C16.4662 41.1677 15.6159 41.1138 14.7721 41.1388C11.8507 41.223 8.42356 41.6848 5.55027 41.5453C-1.01539 41.2256 -1.92288 32.3713 3.73269 30.3607C5.57627 29.7054 6.72819 30.1672 8.53797 30.2396C16.8536 30.5699 24.7649 27.5553 28.9747 20.0207C30.1812 17.8614 30.4686 15.7074 33.0688 14.6995C35.305 13.8323 37.3332 14.4692 39.0481 16.0285C40.5043 14.4731 42.6261 13.9165 44.6556 14.5863C47.6394 15.5719 48.0073 18.3786 49.4674 20.7589C53.8189 27.8553 61.5703 30.5567 69.5869 30.233C71.0963 30.1725 72.0935 29.8146 73.6589 30.1896C78.7892 31.4199 79.6473 38.8084 74.7653 40.994C73.0686 41.7533 72.1962 41.4309 70.5035 41.4019C67.2219 41.344 63.9703 41.2006 60.6914 41.144L60.6888 41.1453ZM27.265 45.1337L31.7869 54.688C33.0311 56.2789 35.2049 55.6433 35.6951 53.7709C34.7018 46.3745 32.9323 39.0163 31.848 31.6107C31.8545 30.4212 33.2365 29.9291 33.9997 29.0527C35.7757 27.0118 37.3554 22.8643 37.553 20.1615C37.7324 17.6891 35.1932 16.2061 33.3458 17.8746C32.6255 18.5246 31.6868 21.0629 31.051 22.1248C26.6228 29.5277 18.8948 32.966 10.4947 33.1318C9.01121 33.1608 7.54727 32.8897 6.07682 32.8568C2.10752 32.7673 1.69278 38.0689 5.19533 38.6163C6.92581 38.8873 9.93301 38.436 11.7831 38.3794C13.8685 38.3149 15.9409 38.2649 18.0276 38.2597C18.6569 38.2584 18.8558 37.9702 19.5618 38.4044C20.845 39.1939 20.0545 42.4125 19.7386 43.6704C19.1353 46.0719 17.8716 48.922 16.6807 51.0918C15.9799 52.3669 14.6096 53.9156 14.0817 55.0341C13.1846 56.9355 15.0139 58.6961 16.9043 57.8908C19.7646 56.6723 22.9486 51.5274 24.0277 48.6693C24.3215 47.8904 24.7935 45.6968 25.1705 45.2245C25.6646 44.6047 26.6969 44.5863 27.2637 45.1323L27.265 45.1337ZM49.834 25.9736C48.7796 24.838 47.8019 23.538 46.9971 22.2064C46.3223 21.0879 45.2861 18.3009 44.4463 17.6904C42.6651 16.3943 40.36 17.7404 40.4198 19.9181C40.4926 22.5629 42.2373 26.9631 43.9392 28.983C44.9312 30.1606 46.5902 30.5436 46.1078 32.3686L42.2581 53.1945C42.2945 54.8551 43.6584 55.9762 45.2653 55.4394C46.2352 55.1157 46.6097 54.013 47.0348 53.1551C48.2192 50.7655 49.1488 47.9693 50.4087 45.6574C50.8676 44.8139 51.6815 44.3968 52.5565 44.9758C53.1506 45.3692 53.6512 47.8272 53.971 48.6707C55.145 51.7787 57.861 56.0354 60.7824 57.6816C61.9083 58.3158 63.2032 58.2948 63.8663 57.0434C64.7205 55.4315 63.6323 54.7775 62.8704 53.5972C60.9761 50.6576 59.1143 47.0943 58.2601 43.6718C57.913 42.2809 56.8781 38.2136 59.1936 38.1452C61.8251 38.0663 64.6035 38.44 67.244 38.5228C68.7873 38.5715 71.5189 38.8308 72.9061 38.59C75.0981 38.2097 75.8769 35.6464 74.5105 33.9279C73.1674 32.2384 70.7713 33.0884 68.9433 33.1331C62.0019 33.2989 54.664 31.1712 49.8353 25.9749L49.834 25.9736Z" fill="#FF6A00"/>
<path d="M21.9397 13.4546C24.8351 16.3586 25.1991 21.5339 22.6314 24.7761C17.1981 31.6369 7.20274 26.1906 8.7759 17.8508C9.94472 11.6558 17.3633 8.86489 21.9397 13.4546ZM19.9908 15.5586C14.8943 10.2965 7.8216 19.3495 13.4811 23.9221C18.5737 28.0368 24.4334 20.1443 19.9908 15.5586Z" fill="#FF6A00"/>
<path d="M60.6602 11.2112C71.1405 10.0414 72.5161 26.9895 62.18 27.8672C51.8947 28.7409 50.5504 12.3389 60.6602 11.2112ZM58.0066 15.5587C53.5589 20.1497 59.3743 28.0211 64.5164 23.9222C70.1693 19.4155 63.1252 10.2743 58.0066 15.5587Z" fill="#FF6A00"/>
<path d="M38.7075 0.0249199C39.5721 -0.139561 40.3287 0.515731 40.4301 1.37761C40.5914 2.73688 40.6174 7.55946 40.4184 8.86477C40.1688 10.4977 37.7792 10.5346 37.566 8.74503C37.4047 7.38708 37.3787 2.56187 37.5777 1.25787C37.6622 0.699949 38.1523 0.131503 38.7062 0.0249199H38.7075Z" fill="#FF6A00"/>
<path d="M48.0606 4.3635C49.0851 4.24639 49.8431 5.23196 49.6221 6.21753C49.5376 6.59386 48.9083 7.13994 48.6119 7.43074C47.079 8.93081 45.2732 10.1953 43.7234 11.6849C42.2257 12.3533 40.9138 10.7019 41.9838 9.39925C43.2866 7.81234 45.866 6.37807 47.2455 4.73326C47.4574 4.58193 47.8097 4.39245 48.0606 4.36482V4.3635Z" fill="#FF6A00"/>
<path d="M29.7327 4.38431C30.1864 4.37115 30.5336 4.61063 30.8781 4.86854C32.6268 6.17649 34.2454 8.06868 36.0136 9.39768C37.1005 10.703 35.7029 12.457 34.2038 11.6228L28.6679 6.70941C27.9385 5.75542 28.5314 4.4172 29.7327 4.38431Z" fill="#FF6A00"/>
</g>
<defs>
<clipPath id="clip0_17_95">
<rect width="78" height="61" fill="white"/>
</clipPath>
</defs>
</svg>
