<svg width="28" height="55" viewBox="0 0 28 55" fill="none" xmlns="http://www.w3.org/2000/svg">
<g clip-path="url(#clip0_17_81)">
<path d="M21.335 17.6395L6.34455 45.9817C4.96609 47.7069 3.78279 46.3082 3.2278 46.6641C3.11161 46.7389 2.25995 48.9198 2.22949 49.2462C2.01516 51.5121 4.15842 53.4685 6.38967 53.1727C10.3389 52.649 9.36429 46.5813 13.1838 45.9579C17.6666 45.2268 19.1297 50.6484 16.0163 53.243C13.1297 52.3339 17.6497 50.1269 15.089 48.107C12.4822 46.0509 11.476 50.8547 10.5059 52.3656C7.2481 57.4415 -0.211571 54.6054 0.523906 48.7441C0.626557 47.9268 1.48612 46.4873 1.47822 46.0135C1.46243 45.1735 -0.198034 44.9842 0.0196758 43.3395L11.7805 13.458L21.3361 17.6395H21.335Z" fill="#FF6A00"/>
<path d="M26.7247 11.7373L13.0022 5.59033C16.2205 -5.53391 32.6424 1.75001 26.7247 11.7373Z" fill="#FF6A00"/>
<path d="M12.0625 11.9438C11.9001 10.2152 12.0321 8.45598 12.6322 6.82373L25.7411 13.0864C25.1962 13.9217 23.2222 16.692 22.234 16.5991L12.0625 11.9438Z" fill="#FF6A00"/>
</g>
<defs>
<clipPath id="clip0_17_81">
<rect width="28" height="55" fill="white"/>
</clipPath>
</defs>
</svg>
